<svg width="22" height="22" viewBox="0 0 22 22" fill="none" xmlns="http://www.w3.org/2000/svg">
<path d="M10.7248 10.4962C10.0563 10.4962 9.41509 10.2306 8.94234 9.75782C8.46959 9.28508 8.204 8.64389 8.204 7.97533C8.204 7.30676 8.46959 6.66558 8.94234 6.19283C9.41509 5.72008 10.0563 5.45449 10.7248 5.45449C11.3934 5.45449 12.0346 5.72008 12.5073 6.19283C12.9801 6.66558 13.2457 7.30676 13.2457 7.97533C13.2457 8.30637 13.1805 8.63417 13.0538 8.94001C12.9271 9.24585 12.7414 9.52374 12.5073 9.75782C12.2733 9.99191 11.9954 10.1776 11.6895 10.3043C11.3837 10.431 11.0559 10.4962 10.7248 10.4962ZM10.7248 0.916992C8.85285 0.916992 7.05754 1.66064 5.73384 2.98433C4.41015 4.30802 3.6665 6.10334 3.6665 7.97533C3.6665 13.2691 10.7248 21.0837 10.7248 21.0837C10.7248 21.0837 17.7832 13.2691 17.7832 7.97533C17.7832 6.10334 17.0395 4.30802 15.7158 2.98433C14.3921 1.66064 12.5968 0.916992 10.7248 0.916992Z" fill="#FAFAFA"/>
</svg>
